# AST/ASF file generated using VICON BodyLanguage
# -----------------------------------------------
:version 1.10
:name VICON
:units
  mass 1.0
  length 0.45
  angle deg
:documentation
   .ast/.asf automatically generated from VICON data using
   VICON BodyBuilder and BodyLanguage model FoxedUp or BRILLIANT.MOD
:root
   order TX TY TZ RX RY RZ
   axis XYZ
   position 0 0 0  
   orientation 0 0 0 
:bonedata
  begin
     id 1 
     name lhipjoint
     direction 0.690799 -0.707083 0.151096 
     length 2.54797 
     axis 0 0 0  XYZ
  end
  begin
     id 2 
     name lfemur
     direction 0.34202 -0.939693 0  
     length 7.21646  
     axis 0 0 20  XYZ
    dof rx ry rz
    limits (-160.0 20.0)
           (-70.0 70.0)
           (-60.0 70.0)
  end
  begin
     id 3 
     name ltibia
     direction 0.34202 -0.939693 0   
     length 8.16759   
     axis 0 0 20   XYZ
    dof rx
    limits (-10.0 170.0)
  end
  begin
     id 4 
     name lfoot
     direction 0.0487203 -0.133858 0.989802   
     length 1.93375   
     axis -90 7.62852e-016 20   XYZ
    dof rx rz
    limits (-45.0 90.0)
           (-70.0 20.0)
  end
  begin
     id 5 
     name ltoes
     direction 1.53453e-011 -4.21783e-011 1   
     length 0.979747   
     axis -90 7.62852e-016 20   XYZ
    dof rx
    limits (-90.0 20.0)
  end
  begin
     id 6 
     name rhipjoint
     direction -0.694693 -0.703425 0.150315   
     length 2.56122  
     axis 0 0 0  XYZ 
  end
  begin
     id 7 
     name rfemur
     direction -0.34202 -0.939693 0   
     length 7.36786   
     axis 0 0 -20   XYZ
    dof rx ry rz
    limits (-160.0 20.0)
           (-70.0 70.0)
           (-70.0 60.0)
  end
  begin
     id 8 
     name rtibia
     direction -0.34202 -0.939693 0   
     length 8.07288   
     axis 0 0 -20   XYZ
    dof rx
    limits (-10.0 170.0)
 end
 begin
     id 9 
     name rfoot
     direction -0.0428397 -0.117701 0.992125   
     length 1.88295  
     axis -90 -7.62852e-016 -20   XYZ
    dof rx rz
    limits (-45.0 90.0)
           (-20.0 70.0)
  end
  begin
     id 10 
     name rtoes
     direction -1.53456e-011 -4.2187e-011 1   
     length 0.955578   
     axis -90 -7.62852e-016 -20   XYZ
    dof rx
    limits (-90.0 20.0)
  end
  begin
     id 11 
     name lowerback
     direction 0.0288145 0.999398 -0.0193241   
     length 1.92149   
     axis 0 0 0   XYZ
    dof rx ry rz
    limits (-20.0 45.0)
           (-30.0 30.0)
           (-30.0 30.0)
  end
  begin
     id 12 
     name upperback
     direction 0.0233784 0.998099 0.0570278   
     length 1.90435   
     axis 0 0 0   XYZ
    dof rx ry rz
    limits (-20.0 45.0)
           (-30.0 30.0)
           (-30.0 30.0)
  end
  begin
     id 13 
     name thorax
     direction 0.0096694 0.997833 0.0650817   
     length 1.9111   
     axis 0 0 0   XYZ
    dof rx ry rz
    limits (-20.0 45.0)
           (-30.0 30.0)
           (-30.0 30.0)
  end
  begin
     id 14 
     name lowerneck
     direction 0.00516803 0.999916 0.0118722   
     length 1.74664   
     axis 0 0 0   XYZ
    dof rx ry rz
    limits (-20.0 45.0)
           (-30.0 30.0)
           (-30.0 30.0)
  end
  begin
     id 15 
     name upperneck
     direction -0.0510851 0.996117 -0.071696   
     length 1.68498   
     axis 0 0 0   XYZ
    dof rx ry rz
    limits (-20.0 45.0)
           (-30.0 30.0)
           (-30.0 30.0)
  end
  begin
     id 16
     name head
     direction -0.019188 0.999436 -0.0275702  
     length 1.83483  
     axis 0 0 0   XYZ
    dof rx ry rz
    limits (-20.0 45.0)
           (-30.0 30.0)
           (-30.0 30.0)
  end
  begin
     id 17 
     name lclavicle
     direction 0.967006 0.248456 -0.0562957  
     length 3.39395  
     axis 0 0 0   XYZ
    dof ry rz
    limits (-20.0 10.0)
           (0.0 20.0)
  end
  begin
     id 18 
     name lhumerus
     direction 1 -4.48962e-011 -5.62711e-019   
     length 5.24318   
     axis 180 -30 -90   XYZ
    dof rx ry rz
    limits (-60.0 90.0)
           (-90.0 90.0)
           (-90.0 90.0)
  end
  begin
     id 19
     name lradius
     direction 1 -4.48966e-011 7.90625e-027   
     length 2.98999   
     axis 180 -30 -90   XYZ
    dof rx
    limits (-10.0 170.0)
  end
  begin
     id 20
     name lwrist
     direction 1 -4.48959e-011 1.61068e-026   
     length 1.49499   
     axis -9.31229e-015 90 90   XYZ
    dof ry
    limits (-180.0 0.0)
 end
  begin
     id 21 
     name lhand
     direction 1 -4.49017e-011 3.22136e-026   
     length 0.726745   
     axis -2.0555e-014 90 90   XYZ
    dof rx rz
    limits (-90.0 90.0)
           (-45.0 45.0)
  end
  begin
     id 22 
     name lfingers
     direction 1 -4.4898e-011 6.44272e-026   
     length 0.58592   
     axis -4.11101e-014 90 90   XYZ
    dof rx
    limits (0.0 90.0)
  end
  begin
     id 23
     name lthumb
     direction 0.707107 -6.34922e-011 0.707107   
     length 0.841268   
     axis -90 45 2.85299e-015   XYZ
    dof rx rz
    limits (-45.0 45.0)
           (-45.0 45.0)
  end
  begin
     id 24 
     name rclavicle
     direction -0.972232 0.230238 0.0419005   
     length 3.40416  
     axis 0 0 0   XYZ 
    dof ry rz
    limits (-10.0 20.0)
           (-20.0 0.0)
  end
  begin
     id 25 
     name rhumerus
     direction -1 -4.48976e-011 2.48487e-027  
     length 5.37045   
     axis 180 30 90   XYZ
    dof rx ry rz
    limits (-90.0 60.0)
           (-90.0 90.0)
           (-90.0 90.0)
  end
  begin
     id 26 
     name rradius
     direction -1 -4.48942e-011 7.87951e-027   
     length 2.92792   
     axis 180 30 90   XYZ
    dof rx
    limits (-10.0 170.0)
  end
  begin
     id 27 
     name rwrist
     direction -1 -4.48969e-011 1.61068e-026   
     length 1.46396   
     axis -9.31229e-015 -90 -90   XYZ
    dof ry
    limits (-180.0 0.0)
  end
  begin
     id 28
     name rhand
     direction -1 -4.49043e-011 3.22136e-026   
     length 0.784497   
     axis -2.0555e-014 -90 -90   XYZ
    dof rx rz
    limits (-90.0 90.0)
           (-45.0 45.0)
  end
  begin
     id 29
     name rfingers
     direction -1 -4.48823e-011 6.44272e-026   
     length 0.632482   
     axis -4.11101e-014 -90 -90   XYZ
    dof rx
    limits (0.0 90.0)
  end
  begin
     id 30
     name rthumb
     direction -0.707107 -6.34923e-011 0.707107   
     length 0.908121   
     axis -90 -45 -2.85299e-015   XYZ
    dof rx rz
    limits (-45.0 45.0)
           (-45.0 45.0)
  end
:hierarchy
  begin
    root lhipjoint rhipjoint lowerback
    lhipjoint lfemur
    lfemur ltibia
    ltibia lfoot
    lfoot ltoes
    rhipjoint rfemur
    rfemur rtibia
    rtibia rfoot
    rfoot rtoes
    lowerback upperback
    upperback thorax
    thorax lowerneck lclavicle rclavicle
    lowerneck upperneck
    upperneck head
    lclavicle lhumerus
    lhumerus lradius
    lradius lwrist
    lwrist lhand lthumb
    lhand lfingers
    rclavicle rhumerus
    rhumerus rradius
    rradius rwrist
    rwrist rhand rthumb
    rhand rfingers
  end

#!OML:ASF E:\Style6\Style6.ASF
:FULLY-SPECIFIED
:DEGREES
1423
root 0.334031 18.0642 -0.396291 42.5583 2.24619 -2.08959
lowerback 19.7655 -1.32942 6.59032
upperback -2.12491 0.121322 2.06443
thorax -13.5974 -0.340245 -1.46173
lowerneck 9.98069 5.61796 3.7162
upperneck -26.2303 5.59269 -12.9082
head -9.33163 3.7854 -5.75888
rclavicle -3.77691e-015 -8.34896e-015
rhumerus 13.5042 18.589 -84.0508
rradius 29.6038
rwrist 40.6973
rhand -6.70636 5.06387
rfingers 7.12502
rthumb 19.1532 -24.013
lclavicle -3.77691e-015 -8.34896e-015
lhumerus 14.977 -35.6642 76.1653
lradius 32.1778
lwrist -12.8794
lhand -7.23338 21.0561
lfingers 7.12502
lthumb 18.6464 50.1825
rfemur -47.5948 13.0984 6.97205
rtibia 3.89618e-014
rfoot -3.42628 -33.4311
rtoes 23.5804
lfemur -67.8154 -37.8327 33.1886
ltibia 15.6342
lfoot -49.6424 46.1378
ltoes 43.5859
1424
root 0.333708 18.064 -0.396126 42.5952 2.23716 -2.09565
lowerback 19.7411 -1.29023 6.5708
upperback -2.08283 0.165141 2.07419
thorax -13.53 -0.315861 -1.45449
lowerneck 10.1319 5.95301 3.62375
upperneck -26.6676 5.95315 -13.2553
head -9.4685 4.01721 -5.93544
rclavicle -5.76476e-015 6.36111e-015
rhumerus 13.6914 18.5309 -83.9207
rradius 29.5098
rwrist 41.0087
rhand -6.39078 5.11366
rfingers 7.12502
rthumb 19.4567 -23.9329
lclavicle -5.76476e-015 6.36111e-015
lhumerus 15.1132 -35.8013 76.0989
lradius 32.0709
lwrist -12.8856
lhand -7.30731 20.9775
lfingers 7.12502
lthumb 18.5752 50.1106
rfemur -47.639 13.0972 6.96598
rtibia 5.56597e-014
rfoot -3.37236 -33.4358
rtoes 23.4559
lfemur -68.4636 -38.311 34.3084
ltibia 15.5835
lfoot -51.4661 46.0195
ltoes 44.3082
1425
root 0.334614 18.0649 -0.396693 42.5781 2.26651 -2.13042
lowerback 19.8214 -1.27558 6.63719
upperback -2.0539 0.208317 2.08831
thorax -13.5405 -0.300162 -1.4894
lowerneck 10.3001 6.27697 3.66436
upperneck -27.0224 6.29163 -13.7535
head -9.56776 4.24287 -6.18319
rclavicle -1.98785e-016 -1.15295e-014
rhumerus 13.8468 18.612 -83.726
rradius 29.477
rwrist 41.1633
rhand -6.13828 5.15984
rfingers 7.12502
rthumb 19.6994 -23.862
lclavicle -1.98785e-016 -1.15295e-014
lhumerus 15.0832 -35.8466 76.1402
lradius 32.0199
lwrist -13.0182
lhand -7.38731 20.9804
lfingers 7.12502
lthumb 18.4983 50.1209
rfemur -47.6096 13.105 7.0243
rtibia 7.07673e-014
rfoot -3.28871 -33.428
rtoes 23.2988
lfemur -68.6114 -38.4656 34.6537
ltibia 15.5513
lfoot -51.9582 45.958
ltoes 44.5472
1426
root 0.335502 18.0657 -0.395802 42.572 2.2801 -2.1404
lowerback 19.8741 -1.25478 6.68736
upperback -2.04325 0.252008 2.08552
thorax -13.5558 -0.284337 -1.53435
lowerneck 10.3472 6.59854 3.75169
upperneck -27.1025 6.65281 -14.2503
head -9.53857 4.4691 -6.41251
rclavicle -5.76476e-015 -1.72943e-014
rhumerus 13.976 18.6532 -83.5587
rradius 29.3504
rwrist 41.3052
rhand -6.18292 5.28673
rfingers 7.12502
rthumb 19.6565 -23.7395
lclavicle -5.76476e-015 -1.72943e-014
lhumerus 15.0643 -35.8475 76.2336
lradius 31.8655
lwrist -13.2269
lhand -7.37016 20.9386
lfingers 7.12502
lthumb 18.5148 50.0775
rfemur -47.6035 13.102 7.0487
rtibia -1.98785e-015
rfoot -2.98714 -33.4548
rtoes 22.6898
lfemur -68.6007 -38.4681 34.6419
ltibia 15.572
lfoot -51.8978 45.9624
ltoes 44.5237
1427
root 0.334701 18.0649 -0.395256 42.5996 2.31155 -2.18045
lowerback 19.8561 -1.2284 6.72267
upperback -2.02819 0.297089 2.11575
thorax -13.5244 -0.263809 -1.53467
lowerneck 10.412 6.92884 3.7187
upperneck -27.1716 7.02492 -14.6554
head -9.51641 4.7023 -6.58961
rclavicle 7.35503e-015 -1.27222e-014
rhumerus 14.1329 18.7454 -83.3668
rradius 29.1952
rwrist 41.4285
rhand -6.36447 5.31624
rfingers 7.12502
rthumb 19.482 -23.7277
lclavicle 7.35503e-015 -1.27222e-014
lhumerus 15.1858 -35.9482 76.2189
lradius 31.66
lwrist -13.3369
lhand -7.33115 21.0063
lfingers 7.12502
lthumb 18.5523 50.1416
rfemur -47.6388 13.1035 7.10348
rtibia -1.66979e-014
rfoot -3.06336 -33.4497
rtoes 22.8953
lfemur -68.7966 -38.5523 34.9736
ltibia 15.6124
lfoot -52.4449 45.8013
ltoes 44.7657
1428
root 0.335044 18.0652 -0.395599 42.5797 2.3611 -2.23378
lowerback 19.8673 -1.23169 6.81202
upperback -1.97522 0.315371 2.1378
thorax -13.468 -0.258587 -1.56697
lowerneck 10.5134 7.2182 3.65636
upperneck -27.2872 7.33283 -15.0382
head -9.52645 4.90689 -6.75519
rclavicle 0 -1.59028e-014
rhumerus 14.3451 18.7666 -83.2563
rradius 29.0245
rwrist 41.6168
rhand -6.38912 5.28691
rfingers 7.12502
rthumb 19.4583 -23.7595
lclavicle 0 -1.59028e-014
lhumerus 15.3648 -35.9934 76.121
lradius 31.4421
lwrist -13.5195
lhand -7.19606 21.1054
lfingers 7.12502
lthumb 18.6822 50.2282
rfemur -47.6201 13.1068 7.18737
rtibia -2.8625e-014
rfoot -3.08238 -33.4402
rtoes 22.8617
lfemur -68.6687 -38.4604 34.817
ltibia 15.6478
lfoot -52.2124 45.785
ltoes 44.6732
1429
root 0.335496 18.065 -0.395496 42.5508 2.32666 -2.20008
lowerback 19.9009 -1.22079 6.77829
upperback -1.93796 0.322161 2.13569
thorax -13.4432 -0.251745 -1.55292
lowerneck 10.6515 7.45687 3.5714
upperneck -27.2935 7.57765 -15.3804
head -9.51473 5.07797 -6.89108
rclavicle -1.72943e-014 2.98177e-015
rhumerus 14.5197 18.7277 -83.1763
rradius 28.8626
rwrist 41.8684
rhand -6.21558 5.24824
rfingers 7.12502
rthumb 19.6251 -23.7812
lclavicle -1.72943e-014 2.98177e-015
lhumerus 15.4109 -35.9044 76.1793
lradius 31.2248
lwrist -13.8455
lhand -6.97366 21.1157
lfingers 7.12502
lthumb 18.8962 50.2179
rfemur -47.5902 13.1039 7.14302
rtibia 1.02175e-013
rfoot -3.02632 -33.4551
rtoes 22.7763
lfemur -68.5213 -38.38 34.5043
ltibia 15.6938
lfoot -51.984 45.6781
ltoes 44.6634
1430
root 0.335139 18.0642 -0.396474 42.549 2.3369 -2.21854
lowerback 19.9109 -1.20431 6.77524
upperback -1.92147 0.34778 2.17049
thorax -13.4279 -0.23739 -1.52011
lowerneck 10.8702 7.69696 3.47052
upperneck -27.3208 7.8241 -15.7032
head -9.52743 5.25121 -7.02513
rclavicle -4.37326e-015 -2.56432e-014
rhumerus 14.6482 18.6987 -83.0848
rradius 28.7343
rwrist 42.1013
rhand -6.06944 5.22963
rfingers 7.12502
rthumb 19.7656 -23.7854
lclavicle -4.37326e-015 -2.56432e-014
lhumerus 15.3603 -35.6971 76.3626
lradius 31.0285
lwrist -14.3162
lhand -6.80088 21.0344
lfingers 7.12502
lthumb 19.0623 50.1203
rfemur -47.5897 13.105 7.16746
rtibia 6.0033e-014
rfoot -3.15319 -33.459
rtoes 23.1838
lfemur -68.4235 -38.2893 34.3477
ltibia 15.7193
lfoot -51.7488 45.6317
ltoes 44.5955
1431
root 0.333991 18.0639 -0.396931 42.5399 2.32933 -2.23077
lowerback 19.9154 -1.17578 6.74108
upperback -1.90335 0.380181 2.1981
thorax -13.4069 -0.217823 -1.48003
lowerneck 11.0838 7.90847 3.44543
upperneck -27.3017 8.0448 -16.0402
head -9.51945 5.40555 -7.17045
rclavicle 1.78906e-015 -3.97569e-015
rhumerus 14.767 18.6484 -82.9929
rradius 28.6162
rwrist 42.2945
rhand -6.04413 5.1831
rfingers 7.12502
rthumb 19.7899 -23.8294
lclavicle 1.78906e-015 -3.97569e-015
lhumerus 15.4072 -35.6594 76.419
lradius 30.757
lwrist -14.6508
lhand -6.79433 20.932
lfingers 7.12502
lthumb 19.0686 50.0172
rfemur -47.5905 13.1218 7.18111
rtibia 7.55382e-015
rfoot -2.91327 -33.43
rtoes 22.6478
lfemur -68.3072 -38.1988 34.1468
ltibia 15.7559
lfoot -51.3032 45.8237
ltoes 44.235
1432
root 0.333753 18.064 -0.39719 42.5092 2.32658 -2.2049
lowerback 19.9116 -1.14848 6.73724
upperback -1.89709 0.41491 2.20002
thorax -13.3946 -0.201148 -1.48666
lowerneck 11.3572 8.07702 3.4243
upperneck -27.215 8.21676 -16.3401
head -9.50627 5.53188 -7.298
rclavicle 2.78299e-015 -4.94974e-014
rhumerus 14.8033 18.5392 -82.8956
rradius 28.5229
rwrist 42.4641
rhand -6.06549 5.18656
rfingers 7.12502
rthumb 19.7694 -23.8281
lclavicle 2.78299e-015 -4.94974e-014
lhumerus 15.4808 -35.7511 76.47
lradius 30.4483
lwrist -14.8553
lhand -6.91032 21.0155
lfingers 7.12502
lthumb 18.9571 50.1117
rfemur -47.5582 13.1076 7.17025
rtibia 3.65764e-014
rfoot -2.75788 -33.3815
rtoes 22.3414
lfemur -68.3861 -38.2774 34.218
ltibia 15.795
lfoot -51.4038 45.8676
ltoes 44.17
1433
root 0.333655 18.0646 -0.398107 42.4805 2.39309 -2.28257
lowerback 19.8988 -1.12682 6.84987
upperback -1.90021 0.477022 2.25227
thorax -13.3868 -0.178369 -1.51062
lowerneck 11.7668 8.24018 3.31647
upperneck -27.1918 8.36287 -16.6055
head -9.55308 5.65449 -7.4142
rclavicle -7.15625e-015 -2.10712e-014
rhumerus 14.8398 18.5799 -82.7131
rradius 28.4314
rwrist 42.4322
rhand -6.08433 5.11199
rfingers 7.12502
rthumb 19.7513 -23.9045
lclavicle -7.15625e-015 -2.10712e-014
lhumerus 15.5469 -35.8568 76.5235
lradius 30.2041
lwrist -14.8839
lhand -7.01629 21.1335
lfingers 7.12502
lthumb 18.8552 50.2396
rfemur -47.5281 13.1233 7.29114
rtibia 4.29375e-014
rfoot -2.77647 -33.3683
rtoes 22.1535
lfemur -68.348 -38.2473 34.2366
ltibia 15.8539
lfoot -51.3056 45.8733
ltoes 44.0988
